<?xml version="1.0" encoding="UTF-8"?>
<!DOCTYPE svg PUBLIC "-//W3C//DTD SVG 1.1//EN" "http://www.w3.org/Graphics/SVG/1.1/DTD/svg11.dtd">
<!-- Creator: CorelDRAW -->
<svg xmlns="http://www.w3.org/2000/svg" xml:space="preserve" width="0.787402in" height="0.44189in" version="1.1" style="shape-rendering:geometricPrecision; text-rendering:geometricPrecision; image-rendering:optimizeQuality; fill-rule:evenodd; clip-rule:evenodd"
viewBox="0 0 6617.93 3713.98"
 xmlns:xlink="http://www.w3.org/1999/xlink"
 xmlns:xodm="http://www.corel.com/coreldraw/odm/2003">
 <defs>
  <style type="text/css">
   <![CDATA[
    .fil0 {fill:#004923}
    .fil1 {fill:#004923;fill-rule:nonzero}
   ]]>
  </style>
 </defs>
 <g id="Layer_x0020_1">
  <metadata id="CorelCorpID_0Corel-Layer"/>
  <path class="fil0" d="M-0 538.27l962.64 0 0 3175.75 -962.64 0 0 -3175.75zm4569.12 0c682.94,0 1365.88,0 2048.81,0l0 962.61 -1086.2 0 0 179.68c362.07,0 724.13,0 1086.2,0l0 2033.46c-682.94,0 -1365.88,0 -2048.81,0l0 -962.64 1086.2 0 0 -179.64c-362.07,0 -724.13,0 -1086.2,0l0 -2033.46zm-2284.58 0l962.64 962.61 0 2213.14 -962.64 0 0 -3175.75zm1142.29 962.61l962.61 -962.61 0 3175.75 -962.61 0 0 -2213.14zm-2284.54 -962.61l962.61 0 0 962.61 -962.61 0 0 -962.61zm0 1142.29l962.61 0 0 962.61 -962.61 0 0 -962.61z"/>
  <path class="fil1" d="M6048.72 347.34l0 -275.5 -96.99 0 0 -71.84 269.68 0 0 71.84 -96.99 0 0 275.5 -75.71 0zm217.07 -347.34l74.68 0 98.97 169.78 4.86 0 98.94 -169.78 74.68 0 0 347.34 -74.68 0 0 -153.83 4.86 -58.14 -4.86 0 -79.05 138.22 -44.67 0 -79.05 -138.22 -4.86 0 4.86 58.14 0 153.83 -74.68 0 0 -347.34z"/>
 </g>
</svg>
