<svg width="25" height="25" viewBox="0 0 25 25" fill="none" xmlns="http://www.w3.org/2000/svg">
<g id="Group 60">
<path id="Vector" d="M11.7612 6.05864C13.6582 10.0865 12.2242 14.5828 12.2242 14.5828C12.2242 14.5828 7.71888 12.5486 5.82188 8.52081C3.92488 4.49298 5.35895 -0.00334734 5.35895 -0.00334734C5.35895 -0.00334734 9.86424 2.03081 11.7612 6.05864Z" fill="#FFA841"/>
<g id="Group">
<path id="Vector_2" d="M7.95363 20.3292C11.4816 23.0857 15.558 23.1145 15.575 23.0928C15.6328 23.1295 14.0519 17.5071 10.0465 14.6778C6.09401 11.8737 2.09771 13.0465 2.11888 13.0232C2.17347 13.0522 4.47546 17.5901 7.95363 20.3292Z" fill="#FFA841"/>
<path id="Vector_3" d="M19.9891 16.1949C19.1963 21.2863 15.3833 23.1143 15.4261 23.1321C15.4495 23.0969 13.9213 17.8196 14.2768 12.8673C14.6605 7.89148 17.4052 4.91069 17.4493 4.92573C17.4875 4.88072 20.8248 11.07 19.9891 16.1949Z" fill="#FFA841"/>
</g>
</g>
</svg>
