<svg width="61" height="73" viewBox="0 0 61 73" fill="none" xmlns="http://www.w3.org/2000/svg">
<g id="Group">
<path id="Vector" d="M29.8326 6.5977C28.0524 10.6255 29.3982 15.1219 29.3982 15.1219C29.3982 15.1219 33.6262 13.0877 35.4064 9.05987C37.1866 5.03205 35.8408 0.535715 35.8408 0.535715C35.8408 0.535715 31.6129 2.56987 29.8326 6.5977Z" fill="#FFA841"/>
<g id="Group_2">
<g id="Group_3">
<path id="Vector_2" d="M35.7183 62.4534C34.9183 66.4683 31.9963 69.0758 31.9705 69.0679C31.9537 69.117 29.5556 64.3324 30.6233 60.097C31.6707 55.9026 35.2834 54.2518 35.2552 54.2386C35.2414 54.2799 36.5025 58.4679 35.7183 62.4534Z" fill="#FFA841"/>
<path id="Vector_3" d="M24.4416 67.2217C28.2373 70.087 32.1206 68.9699 32.1036 68.9967C32.0665 68.9778 29.8554 64.4501 26.4277 61.5409C22.9649 58.6248 19.0542 58.4895 19.0372 58.5162C18.9885 58.4929 20.5992 64.3449 24.4416 67.2217Z" fill="#FFA841"/>
</g>
<g id="Group_4">
<path id="Vector_4" d="M32.3523 52.6913C30.8849 56.5139 27.5723 58.5478 27.5468 58.5334C27.5196 58.5806 25.9711 53.4214 27.7504 49.4132C29.5016 45.443 33.3363 44.4626 33.3108 44.4482C33.2866 44.4877 33.7961 48.8951 32.3523 52.6913Z" fill="#FFA841"/>
<path id="Vector_5" d="M20.4615 55.3318C23.7057 58.8629 27.7143 58.4652 27.6934 58.4905C27.6577 58.4678 26.2488 53.5959 23.3847 50.0701C20.4896 46.5322 16.684 45.6624 16.6631 45.6876C16.6174 45.6565 17.1737 51.7815 20.4642 55.3306L20.4615 55.3318Z" fill="#FFA841"/>
</g>
<g id="Group_5">
<path id="Vector_6" d="M30.739 42.3764C28.6267 45.92 25.0287 47.321 25.0058 47.3055C24.9709 47.3497 24.3492 41.9258 26.8188 38.2342C29.2525 34.5777 33.1896 34.3012 33.1656 34.283C33.1336 34.3194 32.8211 38.8589 30.739 42.3764Z" fill="#FFA841"/>
<path id="Vector_7" d="M18.62 42.7909C21.1742 46.9208 25.1836 47.2654 25.155 47.2877C25.1236 47.2599 24.5864 42.1509 22.4257 38.0715C20.2329 33.9775 16.6789 32.3789 16.6503 32.4011C16.6061 32.3662 16.0223 38.6353 18.6226 42.7897L18.62 42.7909Z" fill="#FFA841"/>
</g>
<g id="Group_6">
<path id="Vector_8" d="M31.0364 31.6941C28.3082 34.8788 24.5354 35.6078 24.514 35.5884C24.4687 35.6308 24.8604 30.0513 27.9902 26.7536C31.0792 23.4867 34.9931 23.9343 34.9706 23.9122C34.9282 23.9469 33.7257 28.5299 31.0353 31.6914L31.0364 31.6941Z" fill="#FFA841"/>
<path id="Vector_9" d="M19.1046 29.8334C20.827 34.4869 24.6942 35.5762 24.6617 35.5969C24.6344 35.5641 25.0454 30.3186 23.7248 25.7632C22.3762 21.1881 19.2263 18.8798 19.1927 18.8978C19.1526 18.8579 17.3403 25.1503 19.1034 29.8307L19.1046 29.8334Z" fill="#FFA841"/>
</g>
<g id="Group_7">
<path id="Vector_10" d="M33.4064 20.8683C30.0956 23.6248 26.2701 23.6536 26.2541 23.6318C26.1999 23.6686 27.6834 18.0461 31.4424 15.2169C35.1515 12.4128 38.9019 13.5855 38.882 13.5623C38.8308 13.5913 36.6705 18.1292 33.4064 20.8683Z" fill="#FFA841"/>
<path id="Vector_11" d="M22.1116 16.7339C22.8555 21.8254 26.4338 23.6534 26.3936 23.6711C26.3717 23.636 27.8058 18.3587 27.4722 13.4064C27.1122 8.43054 24.5364 5.44975 24.495 5.4648C24.4592 5.41979 21.3273 11.609 22.1116 16.7339Z" fill="#FFA841"/>
</g>
</g>
</g>
</svg>
