<svg width="63" height="73" viewBox="0 0 63 73" fill="none" xmlns="http://www.w3.org/2000/svg">
<g id="Group">
<path id="Vector" d="M32.9159 6.41026C34.5308 10.5072 33.0031 14.945 33.0031 14.945C33.0031 14.945 28.8614 12.7405 27.2465 8.64353C25.6317 4.54659 27.1594 0.108758 27.1594 0.108758C27.1594 0.108758 31.3011 2.31331 32.9159 6.41026Z" fill="#FFA841"/>
<g id="Group_2">
<g id="Group_3">
<path id="Vector_2" d="M24.7622 61.9702C25.3981 66.0143 28.2116 68.7385 28.2377 68.7317C28.2525 68.7814 30.8433 64.0984 29.9489 59.8231C29.0731 55.5895 25.5306 53.793 25.5593 53.781C25.5714 53.8228 24.1409 57.956 24.7622 61.9702Z" fill="#FFA841"/>
<path id="Vector_3" d="M35.8354 67.1983C31.9262 69.9068 28.0916 68.6326 28.1075 68.66C28.1454 68.6427 30.5389 64.2087 34.0822 61.4415C37.6608 58.6687 41.5737 58.6926 41.5896 58.72C41.6392 58.6987 39.7917 64.4803 35.8354 67.1983Z" fill="#FFA841"/>
</g>
<g id="Group_4">
<path id="Vector_4" d="M28.5219 52.3651C29.8325 56.2443 33.0596 58.4113 33.0857 58.398C33.111 58.4462 34.8682 53.3543 33.2535 49.277C31.6653 45.2388 27.8736 44.1031 27.8997 44.0898C27.9223 44.1303 27.2338 48.5132 28.5219 52.3651Z" fill="#FFA841"/>
<path id="Vector_5" d="M40.2956 55.4828C36.9104 58.879 32.9214 58.3185 32.9412 58.3446C32.9777 58.3233 34.5838 53.5129 37.5891 50.1065C40.6257 46.6895 44.4636 45.9752 44.4834 46.0012C44.5304 45.9721 43.7253 52.0693 40.293 55.4815L40.2956 55.4828Z" fill="#FFA841"/>
</g>
<g id="Group_5">
<path id="Vector_6" d="M30.5541 42.1179C32.5204 45.7445 36.0584 47.2908 36.0819 47.2763C36.115 47.3218 36.9569 41.9277 34.6397 38.1387C32.3568 34.3861 28.4342 33.9496 28.4589 33.9324C28.4894 33.9701 28.6169 38.5185 30.5541 42.1179Z" fill="#FFA841"/>
<path id="Vector_7" d="M42.6466 43.0242C39.9264 47.0467 35.9063 47.2279 35.934 47.2513C35.9665 47.2248 36.7112 42.1419 39.0361 38.1539C41.3937 34.1525 45.0098 32.6998 45.0375 32.7232C45.0831 32.6901 45.4112 38.9778 42.644 43.0229L42.6466 43.0242Z" fill="#FFA841"/>
</g>
<g id="Group_6">
<path id="Vector_8" d="M30.6919 31.4297C33.2883 34.7228 37.0283 35.6048 37.0504 35.5863C37.0939 35.6305 36.9296 30.0397 33.9367 26.6173C30.9832 23.2274 27.0543 23.5153 27.0778 23.4942C27.1186 23.5306 28.1336 28.1587 30.6932 31.4271L30.6919 31.4297Z" fill="#FFA841"/>
<path id="Vector_9" d="M42.6894 30.0598C40.779 34.6393 36.8707 35.5703 36.9023 35.5923C36.9309 35.5607 36.7338 30.3028 38.2387 25.8049C39.7724 21.2884 43.0136 19.1103 43.0465 19.1297C43.0881 19.0914 44.6429 25.4523 42.6907 30.0571L42.6894 30.0598Z" fill="#FFA841"/>
</g>
<g id="Group_7">
<path id="Vector_10" d="M28.7641 20.5177C31.96 23.4067 35.7811 23.5912 35.798 23.5701C35.8507 23.609 34.5972 17.9309 30.9565 14.9509C27.3646 11.9982 23.5696 13.0173 23.5904 12.9949C23.6404 13.026 25.6142 17.6481 28.7641 20.5177Z" fill="#FFA841"/>
<path id="Vector_11" d="M40.2179 16.8473C39.2673 21.9043 35.6175 23.5851 35.657 23.6045C35.6803 23.5702 34.4622 18.2389 34.9971 13.3043C35.5594 8.34725 38.2543 5.47376 38.295 5.49048C38.3327 5.44697 41.2101 11.7586 40.2179 16.8473Z" fill="#FFA841"/>
</g>
</g>
</g>
</svg>
