<svg width="25" height="25" viewBox="0 0 25 25" fill="none" xmlns="http://www.w3.org/2000/svg">
<g id="Group 59">
<path id="Vector" d="M12.646 6.05864C10.749 10.0865 12.1831 14.5828 12.1831 14.5828C12.1831 14.5828 16.6883 12.5486 18.5853 8.52081C20.4824 4.49298 19.0483 -0.00334734 19.0483 -0.00334734C19.0483 -0.00334734 14.543 2.03081 12.646 6.05864Z" fill="#FFA841"/>
<g id="Group">
<path id="Vector_2" d="M16.4536 20.3292C12.9256 23.0857 8.84925 23.1145 8.83221 23.0928C8.77442 23.1295 10.3553 17.5071 14.3608 14.6778C18.3132 11.8737 22.3095 13.0465 22.2883 13.0232C22.2338 13.0522 19.9318 17.5901 16.4536 20.3292Z" fill="#FFA841"/>
<path id="Vector_3" d="M4.41817 16.1949C5.21091 21.2863 9.02392 23.1143 8.98109 23.1321C8.95775 23.0969 10.4859 17.8196 10.1304 12.8673C9.74673 7.89148 7.00205 4.91069 6.95795 4.92573C6.91975 4.88072 3.58243 11.07 4.41817 16.1949Z" fill="#FFA841"/>
</g>
</g>
</svg>
